<!DOCTYPE svg PUBLIC "-//W3C//DTD SVG 1.1//EN" "http://www.w3.org/Graphics/SVG/1.1/DTD/svg11.dtd">
<svg xmlns="http://www.w3.org/2000/svg" xmlns:xlink="http://www.w3.org/1999/xlink" width="121px" height="121px" version="1.1"><defs/><g transform="translate(0.5,0.5)"><path d="M 25 100 L 25 40" fill="none" stroke="#000000" stroke-miterlimit="10" pointer-events="none"/><path d="M 40 58 L 25 40" fill="none" stroke="#000000" stroke-miterlimit="10" pointer-events="none"/><path d="M 25 40 L 10 58" fill="none" stroke="#000000" stroke-miterlimit="10" pointer-events="none"/><path d="M 40 70 L 25 52" fill="none" stroke="#000000" stroke-miterlimit="10" pointer-events="none"/><path d="M 25 52 L 10 70" fill="none" stroke="#000000" stroke-miterlimit="10" pointer-events="none"/><path d="M 40 82 L 25 64" fill="none" stroke="#000000" stroke-miterlimit="10" pointer-events="none"/><path d="M 25 64 L 10 82" fill="none" stroke="#000000" stroke-miterlimit="10" pointer-events="none"/><path d="M 40 94 L 25 76" fill="none" stroke="#000000" stroke-miterlimit="10" pointer-events="none"/><path d="M 25 76 L 10 94" fill="none" stroke="#000000" stroke-miterlimit="10" pointer-events="none"/><path d="M 55 80 L 55 20" fill="none" stroke="#000000" stroke-miterlimit="10" pointer-events="none"/><path d="M 70 38 L 55 20" fill="none" stroke="#000000" stroke-miterlimit="10" pointer-events="none"/><path d="M 55 20 L 40 38" fill="none" stroke="#000000" stroke-miterlimit="10" pointer-events="none"/><path d="M 70 50 L 55 32" fill="none" stroke="#000000" stroke-miterlimit="10" pointer-events="none"/><path d="M 55 32 L 40 50" fill="none" stroke="#000000" stroke-miterlimit="10" pointer-events="none"/><path d="M 70 62 L 55 44" fill="none" stroke="#000000" stroke-miterlimit="10" pointer-events="none"/><path d="M 55 44 L 40 62" fill="none" stroke="#000000" stroke-miterlimit="10" pointer-events="none"/><path d="M 70 74 L 55 56" fill="none" stroke="#000000" stroke-miterlimit="10" pointer-events="none"/><path d="M 55 56 L 40 74" fill="none" stroke="#000000" stroke-miterlimit="10" pointer-events="none"/><path d="M 95 100 L 95 40" fill="none" stroke="#000000" stroke-miterlimit="10" pointer-events="none"/><path d="M 110 58 L 95 40" fill="none" stroke="#000000" stroke-miterlimit="10" pointer-events="none"/><path d="M 95 40 L 80 58" fill="none" stroke="#000000" stroke-miterlimit="10" pointer-events="none"/><path d="M 110 70 L 95 52" fill="none" stroke="#000000" stroke-miterlimit="10" pointer-events="none"/><path d="M 95 52 L 80 70" fill="none" stroke="#000000" stroke-miterlimit="10" pointer-events="none"/><path d="M 110 82 L 95 64" fill="none" stroke="#000000" stroke-miterlimit="10" pointer-events="none"/><path d="M 95 64 L 80 82" fill="none" stroke="#000000" stroke-miterlimit="10" pointer-events="none"/><path d="M 110 94 L 95 76" fill="none" stroke="#000000" stroke-miterlimit="10" pointer-events="none"/><path d="M 95 76 L 80 94" fill="none" stroke="#000000" stroke-miterlimit="10" pointer-events="none"/></g></svg>